<?xml version="1.0" encoding="utf-8"?>
<!-- Generator: Adobe Illustrator 19.0.0, SVG Export Plug-In . SVG Version: 6.00 Build 0)  -->
<svg version="1.1" xmlns="http://www.w3.org/2000/svg" xmlns:xlink="http://www.w3.org/1999/xlink" x="0px" y="0px"
	 viewBox="0 -10.8 106 95.8" style="enable-background:new 0 -10.8 106 95.8;" xml:space="preserve">
<style type="text/css">
	.st0{display:none;}
	.st1{display:inline;stroke:#FFFFFF;stroke-miterlimit:10;}
	.st2{fill:#FFFFFF;}
	.st3{display:inline;fill:#FFFFFF;}
</style>
<g id="Calque_2" class="st0">
	<rect x="-3.3" y="-13.6" class="st1" width="119" height="132"/>
</g>
<g id="Layer_1">
	<g>
		<g>
			<path class="st2" d="M53.5,60.2c-2.4-0.6-5.8,0.1-8.9,1.9c-4.9,2.8-7.5,7.5-5.8,10.5c1.1,1.9,3.7,2.6,6.7,2.1
				c-1.4-0.3-2.5-1-3.1-2.1c-1.7-2.9,0.9-7.6,5.8-10.5C50,61.1,51.8,60.5,53.5,60.2"/>
			<path class="st2" d="M53.5,71.9c0.7,2.4,2.9,5,6.1,6.8c4.9,2.8,10.3,2.7,12-0.2c1.1-1.9,0.4-4.5-1.5-6.8c0.4,1.3,0.4,2.6-0.3,3.7
				c-1.7,2.9-7.1,3-12,0.2C56.1,74.5,54.6,73.2,53.5,71.9"/>
			<path class="st2" d="M50.2,66.1c-1.7,1.8-2.8,5-2.8,8.6c0,5.7,2.8,10.3,6.2,10.3c2.2,0,4.1-1.9,5.2-4.7c-1,1-2.1,1.6-3.3,1.6
				c-3.4,0-6.2-4.6-6.2-10.3C49.2,69.6,49.6,67.7,50.2,66.1"/>
		</g>
		<g>
			<path class="st2" d="M56.7,46.5c-0.9-0.3-2.4-0.4-3.7,0.7c-1.3-1-2.8-1-3.7-0.7C48.6,46.8,48,47,46.9,47c1.1,2.3,3.4,3.9,6.1,3.9
				c2.7,0,5-1.6,6.1-3.9C58,47,57.4,46.8,56.7,46.5z"/>
			<path class="st2" d="M53-10.8c-18.5,0-33.4,15-33.4,33.4c0,15.8,11,29.1,25.8,32.5c-11.7-6.3-16.5-20.7-10.9-32.7
				c0.9,4.8,4,9,8.7,11.2c-6-14.1-1.6-30.8,10.9-40C51.6,2,55.4,9.7,63.5,15.5c9.3,6.6,9.6,20.2,1.5,27.5c3.2-0.8,6.3-2.5,8.5-5.3
				c-1.4,7.2-5.9,13.6-12.8,17.3c14.8-3.5,25.8-16.7,25.8-32.5C86.4,4.2,71.5-10.8,53-10.8z"/>
		</g>
		<g class="st0">
			<path id="P" class="st2" d="M6,64.8c-0.8-0.4-1.6-0.4-2.5-0.4c-0.7,0-2.8,0-2.8,0v10.4h1.6c0-0.6,0-1.2,0.2-1.8
				C3,72.2,4,71.7,4.8,71.3c0.9-0.4,1.9-0.9,2.5-1.7C7.8,68.9,8,67.9,7.8,67C7.6,66,6.9,65.2,6,64.8z M6,68.8
				c-0.4,0.6-1,0.9-1.6,1.2c-0.7,0.3-1.3,0.7-1.9,1.1v-5.3c0.5,0,1,0,1.5,0c0.9,0,1.8,0.3,2.1,1.1C6.3,67.6,6.3,68.3,6,68.8z"/>
			<path id="A" class="st2" d="M18,64.7c-0.6-0.3-1.2-0.5-1.8-0.5c-1,0-2,0.4-2.7,1.1c-0.5,0.6-0.8,1.4-0.8,2.1c0,0.2,0,7.3,0,7.3
				h1.6v-3.5c0.9-0.1,2,0,2.8,0.5c0.8,0.6,1.1,1.3,1,2.9c0.2,0,1.6,0,1.6,0v-7C19.6,66.5,19.1,65.3,18,64.7z M14.2,69.8
				c0-0.6,0-1.1,0-1.7c0-0.3,0-0.6,0.1-0.9c0.2-0.6,0.6-1.1,1.2-1.3c0.6-0.2,1.3-0.1,1.8,0.3s0.8,1,0.8,1.6c0,0.5,0,1,0,1.5
				c0,0.6,0,1.2,0,1.8C17.1,70,15.6,69.6,14.2,69.8z"/>
			<path id="R" class="st2" d="M30.7,70.9c-0.2-0.1-0.4-0.2-0.6-0.2c0.5-0.3,1-0.6,1.4-1.1c0.3-0.4,0.5-0.9,0.6-1.5
				c0.1-1.1-0.2-2.2-1.2-2.9c-1.5-1.1-3.3-0.7-5.9-0.8c0,0.3,0,10.4,0,10.4h1.6c0-0.3,0-0.6,0-0.9c0-0.7,0.3-1.4,0.9-1.7
				c0.6-0.4,1.4-0.4,2-0.1s1,0.9,1.1,1.6c0.1,0.4,0,0.8,0,1.2h1.6c0-0.6,0-1.2-0.1-1.7C32.1,72.2,31.5,71.4,30.7,70.9z M28.2,65.9
				c1,0,2.1,0.5,2.2,1.6c0.1,0.5-0.1,1.1-0.4,1.5c-0.4,0.5-1,0.7-1.5,1c-0.6,0.3-1.3,0.6-1.8,1.1v-5.2H28.2z"/>
			<path id="Point_du_I" class="st3" d="M37.5,65.8c0.5-0.1,1.1-0.2,1.6-0.2v-1.2h-1.6V65.8z"/>
			<path id="I" class="st3" d="M37.5,66.8v8.1h1.6v-8.3C38.5,66.5,38,66.6,37.5,66.8z"/>
			<path id="S" class="st2" d="M49.9,69.8c-0.6-0.5-1.3-0.7-2-1c-0.6-0.2-1.4-0.5-1.8-1c-0.4-0.5-0.3-1.3,0.1-1.7
				c0.5-0.5,1.2-0.6,1.8-0.4c0.7,0.2,1.1,0.8,1.1,1.5h1.6c0-0.8-0.2-1.5-0.8-2.1c-0.5-0.5-1.2-0.9-1.9-1c-0.8-0.1-1.6,0-2.2,0.4
				c-0.6,0.4-1.2,0.9-1.4,1.6s-0.2,1.5,0.2,2.1c0.4,0.7,1.1,1.1,1.8,1.4c0.8,0.3,1.7,0.5,2.4,1c0.3,0.2,0.5,0.5,0.6,0.8
				s0.1,0.7-0.1,1c-0.4,0.7-1.3,1-2.1,0.8c-0.9-0.2-1.5-0.9-1.5-1.8H44c0,0.8,0.3,1.7,0.9,2.3c0.6,0.6,1.4,0.9,2.3,1
				c0.9,0.1,1.8-0.1,2.5-0.6s1.1-1.2,1.2-2C51,71.4,50.7,70.4,49.9,69.8z"/>
			<path class="st3" d="M65,70c0.7-0.9,1.4-1.9,1.2-3.1c-0.1-1.1-0.9-2-1.8-2.4c-1-0.5-2.2-0.4-3.2,0.1s-1.7,1.5-1.7,2.6
				c-0.1,1.1,0.5,2.1,1.4,2.8l0.9-1.2c-0.7-0.6-1-1.6-0.4-2.4c0.5-0.7,1.6-0.9,2.4-0.5c0.4,0.2,0.7,0.5,0.9,0.9
				c0.3,0.9-0.3,1.8-0.9,2.5c-1.1,1.4-4,5-4.4,5.5h7.3v-1.5h-4.2L65,70z"/>
			<path class="st3" d="M80.3,65.8c-1.6-1.6-4.2-2-6.2-1.1c-2.1,1-3.3,3.2-3.1,5.4c0.2,2.2,1.9,4.1,4,4.7c2.2,0.6,4.6-0.3,5.9-2.1
				C82.4,70.6,82.1,67.6,80.3,65.8z M79.9,71.1c-0.6,1.5-2.1,2.4-3.7,2.3s-2.9-1.2-3.4-2.7s0.1-3.3,1.4-4.2c1.3-1,3.1-1,4.4-0.1
				C80,67.4,80.6,69.4,79.9,71.1z"/>
			<path class="st3" d="M103.6,67.2v3.5c-0.8-0.6-1.7-0.7-2.5-1.2c-0.7-0.4-0.9-1.1-0.9-1.9s0-3.2,0-3.2h-1.6c0,0,0,2.2,0,3.3
				c0,1.1,0.3,2.2,1.2,2.9c0.6,0.4,1.2,0.7,1.9,0.9c0.6,0.2,1.2,0.5,1.6,1c0.5,0.5,0.3,1.8,0.4,2.3h1.6v-7.6H103.6z"/>
			<path class="st3" d="M92.2,70c0.7-0.9,1.4-1.9,1.2-3.1c-0.1-1.1-0.9-2-1.8-2.4c-1-0.5-2.2-0.4-3.2,0.1s-1.7,1.5-1.7,2.6
				c-0.1,1.1,0.5,2.1,1.4,2.8l0.9-1.2c-0.7-0.6-1-1.6-0.4-2.4c0.5-0.7,1.6-0.9,2.4-0.5c0.4,0.2,0.7,0.5,0.9,0.9
				c0.3,0.9-0.3,1.8-0.9,2.5c-1.1,1.4-4,5-4.4,5.5h7.3v-1.5h-4.2L92.2,70z"/>
		</g>
	</g>
</g>
</svg>
